# xmcd CD database file
#
# Track frame offsets:
#	150
#	13412
#	29085
#	47140
#	61125
#	76297
#	91365
#	104257
#	120710
#	138302
#	156687
#	172287
#	188355
#	206717
#	223705
#	241417
#	257840
#
# Disc length: 3641 seconds
#
# Revision: 0
# Processed by: cddbd v1.4PL0 Copyright (c) Steve Scherf et al.
# Submitted via: CDex 1.40Release
#
DISCID=fd0e3711
DTITLE=Michael Johnson - The Very Best of Michael Johnson (Bluer Than Blue 1978-1995)
DYEAR=1999
DGENRE=Country
TTITLE0=Bluer Than Blue
TTITLE1=Almost Like Being In Love
TTITLE2=This Night Won't Last Forever
TTITLE3=The Very First Time
TTITLE4=You Can Call Me Blue
TTITLE5=I Love You By Heart (w/ Sylvia Johnson)
TTITLE6=Gotta Learn to Love Without You
TTITLE7=Give Me Wings
TTITLE8=The Moon Is Still Over Her Shoulder
TTITLE9=Ponies
TTITLE10=Crying Shame
TTITLE11=I Will Whisper Your Name
TTITLE12=That's That
TTITLE13=Roller Coaster Run (Up Too Slow, Down Too Fast)
TTITLE14=It Must Be You (w/ Juice Newton)
TTITLE15=One Honest Tear
TTITLE16=Almost Free
EXTD=YEAR: 1999 ID3G: 2
EXTT0=
EXTT1=
EXTT2=
EXTT3=
EXTT4=
EXTT5=
EXTT6=
EXTT7=
EXTT8=
EXTT9=
EXTT10=
EXTT11=
EXTT12=
EXTT13=
EXTT14=
EXTT15=
EXTT16=
PLAYORDER=
